<?xml version="1.0" encoding="UTF-8" standalone="no"?>
<!-- Created with Inkscape (http://www.inkscape.org/) -->

<svg
   width="49.347561mm"
   height="49.347561mm"
   viewBox="0 0 49.347561 49.347561"
   version="1.1"
   id="svg1"
   sodipodi:docname="aire_verde.svg"
   inkscape:version="1.4.3 (0d15f75, 2025-12-25)"
   xml:space="preserve"
   xmlns:inkscape="http://www.inkscape.org/namespaces/inkscape"
   xmlns:sodipodi="http://sodipodi.sourceforge.net/DTD/sodipodi-0.dtd"
   xmlns="http://www.w3.org/2000/svg"
   xmlns:svg="http://www.w3.org/2000/svg"><sodipodi:namedview
     id="namedview1"
     pagecolor="#ffffff"
     bordercolor="#000000"
     borderopacity="0.25"
     inkscape:showpageshadow="2"
     inkscape:pageopacity="0.0"
     inkscape:pagecheckerboard="0"
     inkscape:deskcolor="#d1d1d1"
     inkscape:document-units="mm"
     inkscape:zoom="3.0324635"
     inkscape:cx="91.344875"
     inkscape:cy="112.94448"
     inkscape:window-width="1920"
     inkscape:window-height="1111"
     inkscape:window-x="-9"
     inkscape:window-y="-9"
     inkscape:window-maximized="1"
     inkscape:current-layer="layer1" /><defs
     id="defs1" /><g
     inkscape:label="Capa 1"
     inkscape:groupmode="layer"
     id="layer1"
     transform="translate(-83.295206,-162.38127)"><circle
       style="fill:none;stroke:#008000;stroke-width:5.42123;stroke-opacity:1"
       id="path3"
       cx="107.96899"
       cy="187.05505"
       r="21.963165" /><g
       id="g3"
       transform="matrix(0.60714455,0,0,0.60714455,-29.419914,77.973582)"
       style="fill:#f9f9f9"><path
         d="m 233.31007,186.72536 c 0,0.34951 0.11906,0.69903 0.37835,0.92868 0.25929,0.25983 0.57944,0.40958 0.94986,0.40958 0.35983,0 0.70908,-0.14975 0.93927,-0.40958 0.25929,-0.22965 0.40745,-0.57917 0.40745,-0.92868 0,-0.33973 -0.14816,-0.68924 -0.40745,-0.95912 -0.23019,-0.22966 -0.57944,-0.37941 -0.93927,-0.37941 -0.37042,0 -0.69057,0.14975 -0.94986,0.37941 -0.25929,0.26988 -0.37835,0.61939 -0.37835,0.95912 z"
         fill="#010101"
         id="path3-7"
         style="fill:#f9f9f9;fill-opacity:1;stroke-width:0.264583" /><path
         d="m 236.49565,183.33896 c 0,0.37967 0.14023,0.69929 0.39952,0.95911 0.25929,0.25956 0.57944,0.37941 0.95779,0.37941 0.34925,0 0.69057,-0.11985 0.93927,-0.37941 0.2593,-0.25982 0.39952,-0.57944 0.39952,-0.95911 0,-0.34952 -0.14022,-0.69903 -0.39952,-0.92896 -0.2487,-0.25955 -0.59002,-0.40957 -0.93927,-0.40957 -0.37835,0 -0.6985,0.15002 -0.95779,0.40957 -0.25929,0.22993 -0.39952,0.57944 -0.39952,0.92896 z"
         fill="#010101"
         id="path4"
         style="fill:#f9f9f9;fill-opacity:1;stroke-width:0.264583" /><path
         d="m 241.05971,183.33896 c 0,0.37967 0.15082,0.69929 0.42069,0.95911 0.25929,0.25956 0.57944,0.37941 0.94721,0.37941 0.35189,0 0.70114,-0.11985 0.93133,-0.37941 0.25929,-0.25982 0.40746,-0.57944 0.40746,-0.95911 0,-0.34952 -0.14817,-0.69903 -0.40746,-0.92896 -0.23019,-0.25955 -0.57944,-0.40957 -0.93133,-0.40957 -0.36777,0 -0.68792,0.15002 -0.94721,0.40957 -0.26987,0.22993 -0.42069,0.57944 -0.42069,0.92896 z"
         fill="#010101"
         id="path5"
         style="fill:#f9f9f9;fill-opacity:1;stroke-width:0.264583" /><path
         d="m 236.49565,178.42458 c 0,0.34952 0.14023,0.6993 0.39952,0.95885 0.25929,0.25983 0.57944,0.36963 0.95779,0.36963 0.34925,0 0.69057,-0.1098 0.93927,-0.36963 0.2593,-0.25955 0.39952,-0.60933 0.39952,-0.95885 0,-0.34951 -0.14022,-0.69929 -0.39952,-0.939 -0.2487,-0.25956 -0.59002,-0.39952 -0.93927,-0.39952 -0.37835,0 -0.6985,0.13996 -0.95779,0.39952 -0.25929,0.23971 -0.39952,0.58949 -0.39952,0.939 z"
         fill="#010101"
         id="path6"
         style="fill:#f9f9f9;fill-opacity:1;stroke-width:0.264583" /><path
         d="m 241.05971,178.42458 c 0,0.34952 0.15082,0.6993 0.42069,0.95885 0.25929,0.25983 0.57944,0.36963 0.94721,0.36963 0.35189,0 0.70114,-0.1098 0.93133,-0.36963 0.25929,-0.25955 0.40746,-0.60933 0.40746,-0.95885 0,-0.34951 -0.14817,-0.69929 -0.40746,-0.939 -0.23019,-0.25956 -0.57944,-0.39952 -0.93133,-0.39952 -0.36777,0 -0.68792,0.13996 -0.94721,0.39952 -0.26987,0.23971 -0.42069,0.58949 -0.42069,0.939 z"
         fill="#010101"
         id="path7"
         style="fill:#f9f9f9;fill-opacity:1;stroke-width:0.264583" /><path
         d="m 236.49565,173.51021 c 0,0.34952 0.14023,0.68898 0.39952,0.9488 0.25929,0.23971 0.57944,0.37968 0.95779,0.37968 0.34925,0 0.69057,-0.13997 0.93927,-0.37968 0.2593,-0.25982 0.39952,-0.59928 0.39952,-0.9488 0,-0.34978 -0.14022,-0.69929 -0.39952,-0.95911 -0.2487,-0.23971 -0.59002,-0.37941 -0.93927,-0.37941 -0.37835,0 -0.6985,0.1397 -0.95779,0.37941 -0.25929,0.25982 -0.39952,0.60933 -0.39952,0.95911 z"
         fill="#010101"
         id="path8"
         style="fill:#f9f9f9;fill-opacity:1;stroke-width:0.264583" /><path
         d="m 241.05971,173.51021 c 0,0.34952 0.15082,0.68898 0.42069,0.9488 0.25929,0.23971 0.57944,0.37968 0.94721,0.37968 0.35189,0 0.70114,-0.13997 0.93133,-0.37968 0.25929,-0.25982 0.40746,-0.59928 0.40746,-0.9488 0,-0.34978 -0.14817,-0.69929 -0.40746,-0.95911 -0.23019,-0.23971 -0.57944,-0.37941 -0.93133,-0.37941 -0.36777,0 -0.68792,0.1397 -0.94721,0.37941 -0.26987,0.25982 -0.42069,0.60933 -0.42069,0.95911 z"
         fill="#010101"
         id="path9"
         style="fill:#f9f9f9;fill-opacity:1;stroke-width:0.264583" /><path
         d="m 245.74548,173.59991 c 0,0.36962 0.14817,0.68924 0.37836,0.94906 0.25929,0.25955 0.61119,0.37941 0.96044,0.37941 0.33866,0 0.68791,-0.11986 0.95779,-0.37941 0.23018,-0.25982 0.381,-0.57944 0.381,-0.94906 0,-0.34952 -0.15082,-0.69903 -0.381,-0.92895 -0.26988,-0.26962 -0.61913,-0.41937 -0.95779,-0.41937 -0.34925,0 -0.70115,0.14975 -0.96044,0.41937 -0.23019,0.22992 -0.37836,0.57943 -0.37836,0.92895 z"
         fill="#010101"
         id="path10"
         style="fill:#f9f9f9;fill-opacity:1;stroke-width:0.264583" /><path
         d="m 250.32013,173.59991 c 0,0.36962 0.14023,0.68924 0.38894,0.94906 0.25929,0.25955 0.6006,0.37941 0.94985,0.37941 0.34925,0 0.6985,-0.11986 0.95779,-0.37941 0.23019,-0.25982 0.37042,-0.57944 0.37042,-0.94906 0,-0.34952 -0.14023,-0.69903 -0.37042,-0.92895 -0.25929,-0.26962 -0.60854,-0.41937 -0.95779,-0.41937 -0.34925,0 -0.69056,0.14975 -0.94985,0.41937 -0.24871,0.22992 -0.38894,0.57943 -0.38894,0.92895 z"
         fill="#010101"
         id="path11"
         style="fill:#f9f9f9;fill-opacity:1;stroke-width:0.264583" /><path
         d="m 245.74548,168.66543 c 0,0.34978 0.14817,0.69929 0.37836,0.95911 0.25929,0.22966 0.61119,0.37942 0.96044,0.37942 0.33866,0 0.68791,-0.14976 0.95779,-0.37942 0.23018,-0.25982 0.381,-0.60933 0.381,-0.95911 0,-0.34952 -0.15082,-0.68924 -0.381,-0.9189 -0.26988,-0.25956 -0.61913,-0.40957 -0.95779,-0.40957 -0.34925,0 -0.70115,0.15001 -0.96044,0.40957 -0.23019,0.22966 -0.37836,0.56938 -0.37836,0.9189 z"
         fill="#010101"
         id="path12"
         style="fill:#f9f9f9;fill-opacity:1;stroke-width:0.264583" /><path
         d="m 250.32013,168.66543 c 0,0.34978 0.14023,0.69929 0.38894,0.95911 0.25929,0.22966 0.6006,0.37942 0.94985,0.37942 0.34925,0 0.6985,-0.14976 0.95779,-0.37942 0.23019,-0.25982 0.37042,-0.60933 0.37042,-0.95911 0,-0.34952 -0.14023,-0.68924 -0.37042,-0.9189 -0.25929,-0.25956 -0.60854,-0.40957 -0.95779,-0.40957 -0.34925,0 -0.69056,0.15001 -0.94985,0.40957 -0.24871,0.22966 -0.38894,0.56938 -0.38894,0.9189 z"
         fill="#010101"
         id="path13"
         style="fill:#f9f9f9;fill-opacity:1;stroke-width:0.264583" /><path
         d="m 245.69521,178.42458 c 0,0.34952 0.14023,0.6993 0.39952,0.95885 0.23019,0.25983 0.57944,0.36963 0.92869,0.36963 0.34925,0 0.69056,-0.1098 0.94986,-0.36963 0.2487,-0.25955 0.38893,-0.60933 0.38893,-0.95885 0,-0.34951 -0.14023,-0.69929 -0.38893,-0.939 -0.2593,-0.25956 -0.60061,-0.39952 -0.94986,-0.39952 -0.34925,0 -0.6985,0.13996 -0.92869,0.39952 -0.25929,0.23971 -0.39952,0.58949 -0.39952,0.939 z"
         fill="#010101"
         id="path14"
         style="fill:#f9f9f9;fill-opacity:1;stroke-width:0.264583" /><path
         d="m 201.43466,191.07034 c 0,0.19977 0.0899,0.45959 0.25982,0.62918 0.19976,0.20982 0.42942,0.28972 0.66939,0.28972 h 3.26628 c 0.51938,0 0.9189,-0.39952 0.9189,-0.9189 v -4.66486 h 17.70962 v 4.66486 c 0,0.19977 0.0794,0.45959 0.25929,0.62918 0.20109,0.20982 0.46038,0.28972 0.65882,0.28972 h 3.28877 c 0.22754,0 0.45773,-0.0799 0.65881,-0.28972 0.17992,-0.16959 0.25929,-0.42941 0.25929,-0.62918 v -4.66486 c 0.50006,0 0.98954,-0.19976 1.33879,-0.54928 0.33867,-0.33972 0.51859,-0.83899 0.51859,-1.32847 -0.11907,-0.45958 -0.17992,-0.9189 -0.17992,-1.41843 0,-0.48948 0.0608,-0.97896 0.17992,-1.43828 v -3.64596 c 0,-0.34978 -0.0609,-0.69929 -0.17992,-1.0488 -0.14023,-0.33973 -0.33867,-0.65935 -0.62971,-0.94907 -0.25929,-0.25955 -0.60854,-0.46937 -0.95779,-0.60933 -0.34925,-0.1397 -0.69056,-0.19976 -1.00806,-0.19976 l -2.00819,-5.15408 c -0.20108,-0.25983 -0.43921,-0.49954 -0.74877,-0.61939 -0.32015,-0.1397 -0.6694,-0.16987 -0.98954,-0.10981 h -18.62958 c -0.31962,-0.0601 -0.63923,-0.0299 -0.9488,0.10981 -0.34978,0.11985 -0.57943,0.35956 -0.75909,0.61939 l -2.01771,5.15408 c -0.31988,0 -0.66939,0.0601 -1.01891,0.19976 -0.34978,0.13996 -0.68924,0.34978 -0.94906,0.60933 -0.28972,0.28972 -0.49927,0.60934 -0.63923,0.94907 -0.11986,0.34951 -0.16986,0.69902 -0.16986,1.0488 v 3.64596 c 0.22992,0.9488 0.22992,1.93781 0,2.85671 0,0.22966 0.0201,0.46937 0.11006,0.69929 0.0897,0.22966 0.22966,0.42942 0.43948,0.62918 0.16959,0.17992 0.36935,0.31962 0.59928,0.40958 0.23971,0.0899 0.46937,0.1397 0.69903,0.1397 z m 24.15222,-20.22713 1.778,4.37489 c -4.00579,-0.17965 -8.00021,-0.25956 -11.98589,-0.25956 -3.99547,0 -8.01079,0.0799 -12.00626,0.25956 l 1.84785,-4.37489 c 0.09,-0.16986 0.20981,-0.30982 0.34951,-0.39978 0.16987,-0.11986 0.34978,-0.1696 0.51938,-0.1696 h 18.62958 c 0.16933,0 0.34925,0.0497 0.51858,0.1696 0.15081,0.09 0.25929,0.22992 0.34925,0.39978 z m -21.57492,7.81103 c 0.54928,0 1.03876,0.20982 1.41843,0.57944 0.36936,0.37968 0.59928,0.89905 0.59928,1.41843 0,0.54928 -0.22992,1.03876 -0.59928,1.41843 -0.37967,0.37942 -0.86915,0.60934 -1.41843,0.60934 -0.51938,0 -1.04881,-0.22992 -1.41843,-0.60934 -0.37968,-0.37967 -0.57944,-0.86915 -0.57944,-1.41843 0,-0.22992 0.0299,-0.48948 0.13997,-0.71914 0.0897,-0.25982 0.22966,-0.48948 0.43947,-0.69929 0.19976,-0.16986 0.42942,-0.33972 0.68924,-0.42942 0.22966,-0.09 0.48948,-0.15002 0.72919,-0.15002 z m 22.79465,0 c 0.52917,0 1.04775,0.20982 1.42875,0.57944 0.36777,0.37968 0.56885,0.89905 0.56885,1.41843 0,0.54928 -0.20108,1.03876 -0.56885,1.41843 -0.381,0.37942 -0.89958,0.60934 -1.42875,0.60934 -0.24077,0 -0.50006,-0.0601 -0.75935,-0.15002 -0.23019,-0.1098 -0.46038,-0.25956 -0.65882,-0.45932 -0.21166,-0.16986 -0.34925,-0.39952 -0.47096,-0.66939 -0.0794,-0.25956 -0.10847,-0.48948 -0.10847,-0.74904 0,-0.51938 0.19843,-1.03875 0.57943,-1.41843 0.36777,-0.36962 0.889,-0.57944 1.41817,-0.57944 z"
         fill="#010101"
         id="path15"
         style="fill:#f9f9f9;fill-opacity:1;stroke-width:0.264583" /></g></g></svg>
