<?xml version="1.0" encoding="UTF-8" standalone="no"?>
<!-- Created with Inkscape (http://www.inkscape.org/) -->

<svg
   width="49.347561mm"
   height="49.347561mm"
   viewBox="0 0 49.347561 49.347561"
   version="1.1"
   id="svg1"
   sodipodi:docname="interurbano_amarillo.svg"
   inkscape:version="1.4.3 (0d15f75, 2025-12-25)"
   xml:space="preserve"
   xmlns:inkscape="http://www.inkscape.org/namespaces/inkscape"
   xmlns:sodipodi="http://sodipodi.sourceforge.net/DTD/sodipodi-0.dtd"
   xmlns="http://www.w3.org/2000/svg"
   xmlns:svg="http://www.w3.org/2000/svg"><sodipodi:namedview
     id="namedview1"
     pagecolor="#ffffff"
     bordercolor="#000000"
     borderopacity="0.25"
     inkscape:showpageshadow="2"
     inkscape:pageopacity="0.0"
     inkscape:pagecheckerboard="0"
     inkscape:deskcolor="#d1d1d1"
     inkscape:document-units="mm"
     inkscape:zoom="2.1442755"
     inkscape:cx="46.635798"
     inkscape:cy="110.76002"
     inkscape:window-width="1920"
     inkscape:window-height="1111"
     inkscape:window-x="-9"
     inkscape:window-y="-9"
     inkscape:window-maximized="1"
     inkscape:current-layer="layer1" /><defs
     id="defs1" /><g
     inkscape:label="Capa 1"
     inkscape:groupmode="layer"
     id="layer1"
     transform="translate(-83.295206,-162.38127)"><circle
       style="fill:none;stroke:#b5b500;stroke-width:5.42123;stroke-opacity:1"
       id="path3"
       cx="107.96899"
       cy="187.05505"
       r="21.963165" /><path
       fill-rule="evenodd"
       clip-rule="evenodd"
       fill="#ffffff"
       d="m 107.96898,171.8262 c -10.677716,0 -11.400874,4.79281 -11.400874,4.79281 l -1.036783,10.31613 v 11.58536 h 2.066166 v 2.18794 c 0,0 0.118118,1.57546 1.752582,1.57546 1.641859,0 1.885389,-1.57546 1.885389,-1.57546 v -2.18794 h 13.46705 v 2.18794 c 0,0 0.24351,1.57546 1.88169,1.57546 1.63819,0 1.75627,-1.57546 1.75627,-1.57546 v -2.18794 h 2.06618 v -11.58536 l -1.02941,-10.31613 c 0,0 -0.72685,-4.79281 -11.40826,-4.79281 m -7.03608,20.80938 a 1.8263553,1.8263553 0 0 1 -1.818972,1.81897 1.8263553,1.8263553 0 0 1 -1.822664,-1.81897 c 0,-0.9925 0.822777,-1.81529 1.822664,-1.81529 0.996202,0 1.818972,0.82279 1.818972,1.81529 m 17.71749,0 a 1.8226657,1.8226657 0 0 1 -3.64532,0 c 0,-0.9925 0.81908,-1.81529 1.82266,-1.81529 0.99619,0 1.82266,0.82279 1.82266,1.81529 m -10.68141,-15.34877 h -7.15783 c -2.911108,0 -2.667587,1.6382 -2.667587,1.6382 0,0 -0.479647,3.88884 -0.6051,5.94395 -0.121738,1.91121 1.579153,1.64189 1.579153,1.64189 h 17.706424 c 0,0 1.66771,0.26932 1.57177,-1.64189 -0.0923,-2.05511 -0.6051,-5.94026 -0.6051,-5.94026 0,0 0.24353,-1.64557 -2.66759,-1.64557 h -7.15414 z m 0,-3.15461 h -5.27614 c 0,0 -0.79326,0.059 -0.79326,0.84862 0,0.78956 0.79326,0.78956 0.79326,0.78956 h 10.55227 c 0,0 0.78958,0 0.78958,-0.78956 0,-0.78958 -0.78589,-0.84862 -0.78589,-0.84862 z"
       id="path2"
       style="fill:#333333;fill-opacity:1;stroke-width:0.36896" /></g></svg>
