<?xml version="1.0" encoding="UTF-8" standalone="no"?>
<!-- Created with Inkscape (http://www.inkscape.org/) -->

<svg
   width="49.347561mm"
   height="49.347561mm"
   viewBox="0 0 49.347561 49.347561"
   version="1.1"
   id="svg1"
   sodipodi:docname="metro_rojo_dark.svg"
   inkscape:version="1.4.3 (0d15f75, 2025-12-25)"
   xmlns:inkscape="http://www.inkscape.org/namespaces/inkscape"
   xmlns:sodipodi="http://sodipodi.sourceforge.net/DTD/sodipodi-0.dtd"
   xmlns="http://www.w3.org/2000/svg"
   xmlns:svg="http://www.w3.org/2000/svg">
  <sodipodi:namedview
     id="namedview1"
     pagecolor="#ffffff"
     bordercolor="#000000"
     borderopacity="0.25"
     inkscape:showpageshadow="2"
     inkscape:pageopacity="0.0"
     inkscape:pagecheckerboard="0"
     inkscape:deskcolor="#d1d1d1"
     inkscape:document-units="mm"
     inkscape:zoom="3.0324635"
     inkscape:cx="114.42842"
     inkscape:cy="25.886544"
     inkscape:window-width="1920"
     inkscape:window-height="1111"
     inkscape:window-x="-9"
     inkscape:window-y="-9"
     inkscape:window-maximized="1"
     inkscape:current-layer="layer1" />
  <defs
     id="defs1" />
  <g
     inkscape:label="Capa 1"
     inkscape:groupmode="layer"
     id="layer1"
     transform="translate(-83.295206,-162.38127)">
    <path
       fill="#333333"
       fill-rule="evenodd"
       d="m 107.96899,174.31158 -19.150781,12.74347 19.150781,12.74347 19.15078,-12.74347 z m -11.489551,12.74347 11.489551,-7.64608 11.48954,7.64608 -11.48954,7.64608 z"
       id="path1"
       style="stroke-width:0.0484011;fill:#f9f9f9" />
    <rect
       x="98.873863"
       y="183.07399"
       fill="#333333"
       width="18.190252"
       height="7.9672208"
       id="rect2"
       style="stroke-width:0.0484011;fill:#f9f9f9" />
    <path
       fill="#ffffff"
       d="m 113.4518,187.5495 c 0,-0.52503 0.16545,-1.05007 0.71235,-1.05007 0.5515,0 0.71695,0.52504 0.71695,1.05007 0,0.51993 -0.16545,1.04496 -0.71695,1.04496 -0.5469,-0.005 -0.71235,-0.53013 -0.71235,-1.04496 m -0.81346,0 c 0,1.03477 0.59746,1.71782 1.52122,1.71782 0.92835,0 1.52581,-0.68305 1.52581,-1.71782 0,-1.04497 -0.59746,-1.72802 -1.52581,-1.72802 -0.91917,0 -1.52122,0.68305 -1.52122,1.72802 m -1.99918,1.63116 h 0.80886 v -1.47314 c 0,-0.57601 0.20681,-1.05007 0.79967,-1.05007 0.0965,0 0.21601,0.0102 0.28954,0.0306 v -0.83597 c -0.0505,-0.0204 -0.11949,-0.0306 -0.17464,-0.0306 -0.39524,0 -0.79048,0.28546 -0.94214,0.69325 l -0.0138,-0.60659 h -0.7675 z m -1.0984,-4.25122 h -0.80887 v 0.9787 h -0.49175 v 0.60149 h 0.49175 v 1.92681 c 0,0.65247 0.43201,0.77481 0.92836,0.77481 0.16085,0 0.33549,-0.005 0.47337,-0.0306 v -0.69834 c -0.0873,0.0204 -0.16545,0.0255 -0.24818,0.0255 -0.27575,0 -0.34009,-0.0765 -0.34009,-0.37721 v -1.61587 h 0.59286 v -0.6015 h -0.59286 v -0.98379 z m -3.6353,2.26324 c 0.009,-0.25487 0.16086,-0.69325 0.67099,-0.69325 0.39524,0 0.56989,0.23958 0.64342,0.69325 z m 2.12787,0.57091 c 0.0551,-1.00419 -0.42741,-1.94211 -1.4293,-1.94211 -0.89619,0 -1.50283,0.74422 -1.50283,1.72802 0,1.00928 0.57447,1.71782 1.50283,1.71782 0.66639,0 1.15355,-0.33133 1.37874,-1.10104 h -0.71235 c -0.0506,0.2039 -0.31251,0.42308 -0.63882,0.42308 -0.45039,0 -0.70316,-0.25996 -0.72154,-0.82577 z m -7.72557,1.41707 h 0.83644 v -3.16548 l 1.01108,3.16548 h 0.68937 l 0.99729,-3.20116 0.0138,3.20116 h 0.83644 v -4.51119 h -1.25926 l -0.90078,3.09921 -0.96512,-3.10431 h -1.25925 z"
       id="path2"
       style="stroke-width:0.0484011;fill:#333333" />
    <circle
       style="fill:none;stroke:#c0392b;stroke-width:5.42123;stroke-opacity:1"
       id="path3"
       cx="107.96899"
       cy="187.05505"
       r="21.963165" />
  </g>
</svg>
