<?xml version="1.0" encoding="UTF-8" standalone="no"?>
<!-- Created with Inkscape (http://www.inkscape.org/) -->

<svg
   width="49.347561mm"
   height="49.347561mm"
   viewBox="0 0 49.347561 49.347561"
   version="1.1"
   id="svg1"
   sodipodi:docname="metro_amarillo.svg"
   inkscape:version="1.4.3 (0d15f75, 2025-12-25)"
   xmlns:inkscape="http://www.inkscape.org/namespaces/inkscape"
   xmlns:sodipodi="http://sodipodi.sourceforge.net/DTD/sodipodi-0.dtd"
   xmlns="http://www.w3.org/2000/svg"
   xmlns:svg="http://www.w3.org/2000/svg">
  <sodipodi:namedview
     id="namedview1"
     pagecolor="#ffffff"
     bordercolor="#000000"
     borderopacity="0.25"
     inkscape:showpageshadow="2"
     inkscape:pageopacity="0.0"
     inkscape:pagecheckerboard="0"
     inkscape:deskcolor="#d1d1d1"
     inkscape:document-units="mm"
     inkscape:zoom="3.0324635"
     inkscape:cx="199.83752"
     inkscape:cy="133.3899"
     inkscape:window-width="1920"
     inkscape:window-height="1111"
     inkscape:window-x="-9"
     inkscape:window-y="-9"
     inkscape:window-maximized="1"
     inkscape:current-layer="layer1" />
  <defs
     id="defs1" />
  <g
     inkscape:label="Capa 1"
     inkscape:groupmode="layer"
     id="layer1"
     transform="translate(-83.295206,-162.38127)">
    <g
       id="g1"
       transform="matrix(0.30235652,0,0,0.3353546,77.731037,153.51959)">
      <path
         fill="#333333"
         fill-rule="evenodd"
         d="m 100.0076,62 -63.3384,38 63.3384,38 63.3384,-38 z m -38,38 38,-22.8 38,22.8 -38,22.8 z"
         id="path1"
         style="stroke-width:0.152" />
      <rect
         x="69.926804"
         y="88.128799"
         fill="#333333"
         width="60.161598"
         height="23.757601"
         id="rect2"
         style="stroke-width:0.152" />
      <path
         fill="#ffffff"
         d="m 118.1412,101.4744 c 0,-1.5656 0.5472,-3.1312 2.356,-3.1312 1.824,0 2.3712,1.5656 2.3712,3.1312 0,1.5504 -0.5472,3.116 -2.3712,3.116 -1.8088,-0.0152 -2.356,-1.5808 -2.356,-3.116 m -2.6904,0 c 0,3.0856 1.976,5.1224 5.0312,5.1224 3.0704,0 5.0464,-2.0368 5.0464,-5.1224 0,-3.116 -1.976,-5.1528 -5.0464,-5.1528 -3.04,0 -5.0312,2.0368 -5.0312,5.1528 m -6.612,4.864 h 2.6752 v -4.3928 c 0,-1.7176 0.684,-3.1312 2.6448,-3.1312 0.3192,0 0.7144,0.0304 0.9576,0.0912 v -2.4928 c -0.1672,-0.0608 -0.3952,-0.0912 -0.5776,-0.0912 -1.3072,0 -2.6144,0.8512 -3.116,2.0672 L 111.3772,96.58 h -2.5384 z M 105.206,93.6616 h -2.6752 V 96.58 h -1.6264 v 1.7936 h 1.6264 v 5.7456 c 0,1.9456 1.4288,2.3104 3.0704,2.3104 0.532,0 1.1096,-0.0152 1.5656,-0.0912 v -2.0824 c -0.2888,0.0608 -0.5472,0.076 -0.8208,0.076 -0.912,0 -1.1248,-0.228 -1.1248,-1.1248 v -4.8184 h 1.9608 v -1.7936 h -1.9608 v -2.9336 z m -12.0232,6.7488 c 0.0304,-0.76 0.532,-2.0672 2.2192,-2.0672 1.3072,0 1.8848,0.7144 2.128,2.0672 z m 7.0376,1.7024 c 0.1824,-2.9944 -1.4136,-5.7912 -4.7272,-5.7912 -2.964,0 -4.9704,2.2192 -4.9704,5.1528 0,3.0096 1.9,5.1224 4.9704,5.1224 2.204,0 3.8152,-0.988 4.56,-3.2832 h -2.356 c -0.1672,0.608 -1.0336,1.2616 -2.1128,1.2616 -1.4896,0 -2.3256,-0.7752 -2.3864,-2.4624 z m -25.5512,4.2256 h 2.7664 v -9.4392 l 3.344,9.4392 h 2.28 l 3.2984,-9.5456 0.0456,9.5456 H 89.17 v -13.452 h -4.1648 l -2.9792,9.2416 -3.192,-9.2568 h -4.1648 z"
         id="path2"
         style="stroke-width:0.152" />
    </g>
    <circle
       style="fill:none;stroke:#b5b500;stroke-width:5.42123;stroke-opacity:1"
       id="path3"
       cx="107.96899"
       cy="187.05505"
       r="21.963165" />
  </g>
</svg>
